<svg clip-rule="evenodd" fill-rule="evenodd" stroke-linejoin="round" stroke-miterlimit="2" viewBox="0 0 300 300" xmlns="http://www.w3.org/2000/svg"><path d="m300 87.628c0-39.071-31.925-70.791-71.249-70.791h-142.497c-39.323 0-71.249 31.72-71.249 70.791v141.581c0 39.071 31.926 70.791 71.249 70.791h142.497c39.324 0 71.249-31.72 71.249-70.791z" fill="#fff" transform="matrix(1.03526 0 0 1.04196 -13.057 -15.0658)"/><path d="m168.791 31.233c0-7.245-4.21-13.126-9.396-13.126-5.185 0-9.395 5.881-9.395 13.126v253.163c0 7.245 4.21 13.126 9.395 13.126 5.186 0 9.396-5.881 9.396-13.126z" transform="matrix(1 0 0 .71578 -9.39537 37.0396)"/><path d="m168.791 31.233c0-7.245-4.21-13.126-9.396-13.126-5.185 0-9.395 5.881-9.395 13.126v253.163c0 7.245 4.21 13.126 9.395 13.126 5.186 0 9.396-5.881 9.396-13.126z" transform="matrix(0 1 -.71578 0 262.96 -9.39537)"/></svg>