<svg clip-rule="evenodd" fill-rule="evenodd" stroke-linejoin="round" stroke-miterlimit="2" viewBox="0 0 300 300" xmlns="http://www.w3.org/2000/svg"><path d="m300 87.628c0-39.071-31.925-70.791-71.249-70.791h-142.497c-39.323 0-71.249 31.72-71.249 70.791v141.581c0 39.071 31.926 70.791 71.249 70.791h142.497c39.324 0 71.249-31.72 71.249-70.791z" fill="#fff" transform="matrix(1.03526 0 0 1.04196 -13.057 -15.0658)"/><path d="m168.791 31.233c0-7.245-4.21-13.126-9.396-13.126-5.185 0-9.395 5.881-9.395 13.126v253.163c0 7.245 4.21 13.126 9.395 13.126 5.186 0 9.396-5.881 9.396-13.126z" transform="matrix(0 1 -.71578 0 283.988 -9.39537)"/><path d="m168.791 31.233c0-7.245-4.21-13.126-9.396-13.126-5.185 0-9.395 5.881-9.395 13.126v253.163c0 7.245 4.21 13.126 9.395 13.126 5.186 0 9.396-5.881 9.396-13.126z" transform="matrix(0 1 -.71578 0 283.988 -79.3954)"/><path d="m168.791 31.233c0-7.245-4.21-13.126-9.396-13.126-5.185 0-9.395 5.881-9.395 13.126v253.163c0 7.245 4.21 13.126 9.395 13.126 5.186 0 9.396-5.881 9.396-13.126z" transform="matrix(0 1 -.71578 0 283.988 60.6046)"/><path d="m168.791 157.815c0-77.107-4.196-139.708-9.363-139.708h-.065c-5.168 0-9.363 62.601-9.363 139.708 0 77.106 4.195 139.707 9.363 139.707h.065c5.167 0 9.363-62.601 9.363-139.707z" transform="matrix(0 1 -.0670173 0 56.9649 -9.39537)"/><path d="m168.791 157.815c0-77.107-4.196-139.708-9.363-139.708h-.065c-5.168 0-9.363 62.601-9.363 139.708 0 77.106 4.195 139.707 9.363 139.707h.065c5.167 0 9.363-62.601 9.363-139.707z" transform="matrix(0 1 -.0670173 0 56.9649 -79.3954)"/><path d="m168.791 157.815c0-77.107-4.196-139.708-9.363-139.708h-.065c-5.168 0-9.363 62.601-9.363 139.708 0 77.106 4.195 139.707 9.363 139.707h.065c5.167 0 9.363-62.601 9.363-139.707z" transform="matrix(0 1 -.0670173 0 56.9649 60.6046)"/></svg>